<svg xmlns="http://www.w3.org/2000/svg" xmlns:xlink="http://www.w3.org/1999/xlink" width="500" zoomAndPan="magnify" viewBox="0 0 375 374.999991" height="500" preserveAspectRatio="xMidYMid meet" version="1.0"><defs><g/><clipPath id="c09fceeeb8"><path d="M 17.25 0 L 357.75 0 C 362.324219 0 366.710938 1.816406 369.949219 5.050781 C 373.183594 8.289062 375 12.675781 375 17.25 L 375 357.75 C 375 362.324219 373.183594 366.710938 369.949219 369.949219 C 366.710938 373.183594 362.324219 375 357.75 375 L 17.25 375 C 12.675781 375 8.289062 373.183594 5.050781 369.949219 C 1.816406 366.710938 0 362.324219 0 357.75 L 0 17.25 C 0 12.675781 1.816406 8.289062 5.050781 5.050781 C 8.289062 1.816406 12.675781 0 17.25 0 Z M 17.25 0 " clip-rule="nonzero"/></clipPath><clipPath id="4c326b9f7c"><path d="M 190.5 123.996094 L 230.117188 123.996094 L 230.117188 162.246094 L 190.5 162.246094 Z M 190.5 123.996094 " clip-rule="nonzero"/></clipPath><clipPath id="4bd4c31400"><path d="M 130.867188 162.246094 L 200.25 162.246094 L 200.25 213.246094 L 130.867188 213.246094 Z M 130.867188 162.246094 " clip-rule="nonzero"/></clipPath><clipPath id="e1153c987c"><path d="M 37.5 281.195312 L 337.5 281.195312 L 337.5 337.5 L 37.5 337.5 Z M 37.5 281.195312 " clip-rule="nonzero"/></clipPath><clipPath id="b58de65a88"><path d="M 37.496094 37.496094 L 93.800781 37.496094 L 93.800781 337.496094 L 37.496094 337.496094 Z M 37.496094 37.496094 " clip-rule="nonzero"/></clipPath></defs><rect x="-37.5" width="450" fill="#ffffff" y="-37.499999" height="449.999989" fill-opacity="1"/><rect x="-37.5" width="450" fill="#ffffff" y="-37.499999" height="449.999989" fill-opacity="1"/><g clip-path="url(#c09fceeeb8)"><rect x="-37.5" width="450" fill="#1e1a33" y="-37.499999" height="449.999989" fill-opacity="1"/></g><g fill="#ffffff" fill-opacity="1"><g transform="translate(116.486034, 251.070001)"><g><path d="M 181.1875 -110.46875 C 193.332031 -106.625 202.84375 -100.203125 209.71875 -91.203125 C 216.59375 -82.203125 220.03125 -71.125 220.03125 -57.96875 C 220.03125 -39.351562 212.796875 -25.035156 198.328125 -15.015625 C 183.867188 -5.003906 162.78125 0 135.0625 0 L 25.1875 0 L 25.1875 -212.453125 L 128.984375 -212.453125 C 154.878906 -212.453125 174.757812 -207.492188 188.625 -197.578125 C 202.488281 -187.660156 209.421875 -174.207031 209.421875 -157.21875 C 209.421875 -146.894531 206.941406 -137.6875 201.984375 -129.59375 C 197.023438 -121.5 190.09375 -115.125 181.1875 -110.46875 Z M 74.046875 -175.421875 L 74.046875 -125.34375 L 122.921875 -125.34375 C 135.054688 -125.34375 144.257812 -127.46875 150.53125 -131.71875 C 156.800781 -135.96875 159.9375 -142.238281 159.9375 -150.53125 C 159.9375 -158.832031 156.800781 -165.054688 150.53125 -169.203125 C 144.257812 -173.347656 135.054688 -175.421875 122.921875 -175.421875 Z M 131.421875 -37.03125 C 144.367188 -37.03125 154.128906 -39.15625 160.703125 -43.40625 C 167.273438 -47.65625 170.5625 -54.226562 170.5625 -63.125 C 170.5625 -80.726562 157.515625 -89.53125 131.421875 -89.53125 L 74.046875 -89.53125 L 74.046875 -37.03125 Z M 131.421875 -37.03125 "/></g></g></g><g clip-path="url(#4c326b9f7c)"><path fill="#1e1a33" d="M 190.5 123.996094 L 230.117188 123.996094 L 230.117188 162.246094 L 190.5 162.246094 Z M 190.5 123.996094 " fill-opacity="1" fill-rule="nonzero"/></g><g clip-path="url(#4bd4c31400)"><path fill="#1e1a33" d="M 130.867188 162.246094 L 200.25 162.246094 L 200.25 213.246094 L 130.867188 213.246094 Z M 130.867188 162.246094 " fill-opacity="1" fill-rule="nonzero"/></g><g clip-path="url(#e1153c987c)"><path fill="#ffffff" d="M 37.5 281.195312 L 337.5 281.195312 L 337.5 337.5 L 37.5 337.5 Z M 37.5 281.195312 " fill-opacity="1" fill-rule="nonzero"/></g><g clip-path="url(#b58de65a88)"><path fill="#ffffff" d="M 93.800781 37.496094 L 93.800781 337.496094 L 37.496094 337.496094 L 37.496094 37.496094 Z M 93.800781 37.496094 " fill-opacity="1" fill-rule="nonzero"/></g></svg>